<svg width="28" height="28" viewBox="0 0 28 28" fill="none" xmlns="http://www.w3.org/2000/svg">
<path d="M12.1925 6.79979L7.96375 1.91854C7.47625 1.35604 6.5825 1.35854 6.01625 1.92604L2.53875 5.40979C1.50375 6.44604 1.2075 7.98479 1.80625 9.21854C5.38327 16.6248 11.3563 22.6062 18.7575 26.1935C19.99 26.7923 21.5275 26.496 22.5625 25.4598L26.0725 21.9435C26.6413 21.3748 26.6425 20.476 26.075 19.9885L21.175 15.7823C20.6625 15.3423 19.8663 15.3998 19.3525 15.9148L17.6475 17.6223C17.5602 17.7138 17.4453 17.7741 17.3204 17.794C17.1956 17.8138 17.0676 17.7922 16.9563 17.7323C14.1693 16.1274 11.8575 13.8126 10.2563 11.0235C10.1963 10.912 10.1746 10.7838 10.1944 10.6587C10.2143 10.5336 10.2747 10.4185 10.3663 10.331L12.0663 8.62979C12.5813 8.11229 12.6375 7.31229 12.1925 6.79854V6.79979Z" stroke="#C21E6F" stroke-width="2" stroke-linecap="round" stroke-linejoin="round"/>
</svg>
