<svg width="40" height="40" viewBox="0 0 40 40" fill="none" xmlns="http://www.w3.org/2000/svg">
<path d="M26.4 20C26.4 21.2658 26.0246 22.5032 25.3214 23.5556C24.6182 24.6081 23.6186 25.4284 22.4492 25.9128C21.2797 26.3972 19.9929 26.524 18.7514 26.277C17.5099 26.0301 16.3696 25.4205 15.4745 24.5255C14.5795 23.6304 13.9699 22.4901 13.723 21.2486C13.476 20.0071 13.6028 18.7203 14.0872 17.5508C14.5716 16.3814 15.3919 15.3818 16.4444 14.6786C17.4968 13.9754 18.7342 13.6 20 13.6C21.6958 13.6053 23.3206 14.2813 24.5197 15.4803C25.7187 16.6794 26.3947 18.3042 26.4 20ZM40 11.2V28.8C40 31.7704 38.82 34.6192 36.7196 36.7196C34.6192 38.82 31.7704 40 28.8 40H11.2C8.22958 40 5.38081 38.82 3.2804 36.7196C1.18 34.6192 0 31.7704 0 28.8V11.2C0 8.22957 1.18 5.38081 3.2804 3.2804C5.38081 1.18 8.22958 0 11.2 0H28.8C31.7704 0 34.6192 1.18 36.7196 3.2804C38.82 5.38081 40 8.22957 40 11.2ZM29.6 20C29.6 18.1013 29.037 16.2452 27.9821 14.6665C26.9272 13.0878 25.4279 11.8574 23.6738 11.1308C21.9196 10.4042 19.9894 10.214 18.1271 10.5845C16.2649 10.9549 14.5544 11.8692 13.2118 13.2118C11.8692 14.5544 10.9549 16.2649 10.5845 18.1271C10.214 19.9893 10.4042 21.9196 11.1308 23.6738C11.8574 25.4279 13.0878 26.9272 14.6665 27.9821C16.2452 29.037 18.1013 29.6 20 29.6C22.5461 29.6 24.9879 28.5886 26.7882 26.7882C28.5886 24.9879 29.6 22.5461 29.6 20ZM32.8 9.6C32.8 9.12532 32.6592 8.66131 32.3955 8.26663C32.1318 7.87195 31.757 7.56434 31.3184 7.38269C30.8799 7.20104 30.3973 7.15351 29.9318 7.24612C29.4662 7.33872 29.0386 7.5673 28.7029 7.90294C28.3673 8.23859 28.1387 8.66623 28.0461 9.13178C27.9535 9.59734 28.001 10.0799 28.1827 10.5184C28.3643 10.957 28.672 11.3318 29.0666 11.5955C29.4613 11.8592 29.9253 12 30.4 12C31.0365 12 31.647 11.7471 32.0971 11.2971C32.5471 10.847 32.8 10.2365 32.8 9.6Z" fill="white"/>
</svg>
